{
  "accessors": [
    {
      "bufferView": 2,
      "componentType": 5126,
      "count": 3639,
      "max": [
        0.21404188871383667,
        0.4571431279182434,
        0.25499996542930603
      ],
      "min": [
        -0.21405825018882751,
        0.40886393189430237,
        -0.17557063698768616
      ],
      "type": "VEC3"
    },
    {
      "bufferView": 2,
      "byteOffset": 43668,
      "componentType": 5126,
      "count": 3639,
      "max": [
        0.9980577230453491,
        1.0,
        0.9999272227287292
      ],
      "min": [
        -0.9980639219284058,
        -0.9993336796760559,
        -0.9995439052581787
      ],
      "type": "VEC3"
    },
    {
      "bufferView": 3,
      "componentType": 5126,
      "count": 3639,
      "max": [
        0.9999988675117493,
        0.9980269074440002,
        0.9986656308174133,
        -1.0
      ],
      "min": [
        -0.9635867476463318,
        -0.9981546401977539,
        -0.997139573097229,
        -1.0
      ],
      "type": "VEC4"
    },
    {
      "bufferView": 1,
      "componentType": 5126,
      "count": 3639,
      "max": [
        0.9677937030792236,
        0.9995085597038269
      ],
      "min": [
        0.0004914405872114003,
        0.0004914999008178711
      ],
      "type": "VEC2"
    },
    {
      "bufferView": 1,
      "byteOffset": 29112,
      "componentType": 5126,
      "count": 3639,
      "max": [
        0.9677937030792236,
        0.9995085597038269
      ],
      "min": [
        0.0004914405872114003,
        0.0004914999008178711
      ],
      "type": "VEC2"
    },
    {
      "bufferView": 1,
      "byteOffset": 58224,
      "componentType": 5126,
      "count": 3639,
      "max": [
        0.9677937030792236,
        0.9995085597038269
      ],
      "min": [
        0.0004914405872114003,
        0.0004914999008178711
      ],
      "type": "VEC2"
    },
    {
      "bufferView": 1,
      "byteOffset": 87336,
      "componentType": 5126,
      "count": 3639,
      "max": [
        0.9677937030792236,
        0.9995085597038269
      ],
      "min": [
        0.0004914405872114003,
        0.0004914999008178711
      ],
      "type": "VEC2"
    },
    {
      "bufferView": 1,
      "byteOffset": 116448,
      "componentType": 5126,
      "count": 3639,
      "max": [
        0.9677937030792236,
        0.9995085597038269
      ],
      "min": [
        0.0004914405872114003,
        0.0004914999008178711
      ],
      "type": "VEC2"
    },
    {
      "bufferView": 0,
      "componentType": 5125,
      "count": 21432,
      "type": "SCALAR"
    },
    {
      "bufferView": 2,
      "byteOffset": 87336,
      "componentType": 5126,
      "count": 11208,
      "max": [
        0.21748745441436768,
        0.7999997138977051,
        0.25289231538772583
      ],
      "min": [
        -0.2175000011920929,
        -2.3461043952011096e-07,
        -0.2549999952316284
      ],
      "type": "VEC3"
    },
    {
      "bufferView": 2,
      "byteOffset": 221832,
      "componentType": 5126,
      "count": 11208,
      "max": [
        0.9999688863754272,
        1.0,
        0.9999510049819946
      ],
      "min": [
        -0.9999688863754272,
        -1.0,
        -0.9999980926513672
      ],
      "type": "VEC3"
    },
    {
      "bufferView": 3,
      "byteOffset": 58224,
      "componentType": 5126,
      "count": 11208,
      "max": [
        1.0,
        0.9999039173126221,
        0.9998837113380432,
        1.0
      ],
      "min": [
        -1.0,
        -0.9999980926513672,
        -0.9996683597564697,
        -1.0
      ],
      "type": "VEC4"
    },
    {
      "bufferView": 1,
      "byteOffset": 145560,
      "componentType": 5126,
      "count": 11208,
      "max": [
        0.995541512966156,
        0.9819934964179993
      ],
      "min": [
        0.0044584451243281364,
        0.013660550117492676
      ],
      "type": "VEC2"
    },
    {
      "bufferView": 1,
      "byteOffset": 235224,
      "componentType": 5126,
      "count": 11208,
      "max": [
        0.995541512966156,
        0.9819934964179993
      ],
      "min": [
        0.0044584451243281364,
        0.013660550117492676
      ],
      "type": "VEC2"
    },
    {
      "bufferView": 1,
      "byteOffset": 324888,
      "componentType": 5126,
      "count": 11208,
      "max": [
        0.995541512966156,
        0.9819934964179993
      ],
      "min": [
        0.0044584451243281364,
        0.013660550117492676
      ],
      "type": "VEC2"
    },
    {
      "bufferView": 1,
      "byteOffset": 414552,
      "componentType": 5126,
      "count": 11208,
      "max": [
        0.995541512966156,
        0.9819934964179993
      ],
      "min": [
        0.0044584451243281364,
        0.013660550117492676
      ],
      "type": "VEC2"
    },
    {
      "bufferView": 1,
      "byteOffset": 504216,
      "componentType": 5126,
      "count": 11208,
      "max": [
        0.995541512966156,
        0.9819934964179993
      ],
      "min": [
        0.0044584451243281364,
        0.013660550117492676
      ],
      "type": "VEC2"
    },
    {
      "bufferView": 0,
      "byteOffset": 85728,
      "componentType": 5125,
      "count": 59652,
      "type": "SCALAR"
    }
  ],
  "asset": {
    "extras": {
      "author": "vmmaniac (https://sketchfab.com/vmmaniac)",
      "license": "CC-BY-4.0 (http://creativecommons.org/licenses/by/4.0/)",
      "source": "https://sketchfab.com/3d-models/silla-sklum-7c00a11f591d4128aff3ddb27406b574",
      "title": "Silla Sklu(m)"
    },
    "generator": "Sketchfab-16.85.0",
    "version": "2.0"
  },
  "bufferViews": [
    {
      "buffer": 0,
      "byteLength": 324336,
      "name": "floatBufferViews",
      "target": 34963
    },
    {
      "buffer": 0,
      "byteLength": 593880,
      "byteOffset": 324336,
      "byteStride": 8,
      "name": "floatBufferViews",
      "target": 34962
    },
    {
      "buffer": 0,
      "byteLength": 356328,
      "byteOffset": 918216,
      "byteStride": 12,
      "name": "floatBufferViews",
      "target": 34962
    },
    {
      "buffer": 0,
      "byteLength": 237552,
      "byteOffset": 1274544,
      "byteStride": 16,
      "name": "floatBufferViews",
      "target": 34962
    }
  ],
  "buffers": [
    {
      "byteLength": 1512096,
      "uri": "scene.bin"
    }
  ],
  "extensionsUsed": [
    "KHR_materials_specular"
  ],
  "images": [
    {
      "uri": "textures/Tissu_baseColor.png"
    },
    {
      "uri": "textures/Tissu_metallicRoughness.png"
    },
    {
      "uri": "textures/Tissu_normal.jpeg"
    },
    {
      "uri": "textures/Bois_baseColor.jpeg"
    },
    {
      "uri": "textures/Bois_metallicRoughness.png"
    },
    {
      "uri": "textures/Bois_normal.jpeg"
    }
  ],
  "materials": [
    {
      "extensions": {
        "KHR_materials_specular": {
          "specularColorFactor": [
            1.0,
            1.0,
            1.0
          ],
          "specularFactor": 0.11552295944892804
        }
      },
      "name": "Tissu",
      "normalTexture": {
        "index": 2
      },
      "occlusionTexture": {
        "index": 1
      },
      "pbrMetallicRoughness": {
        "baseColorTexture": {
          "index": 0
        },
        "metallicFactor": 0.0,
        "metallicRoughnessTexture": {
          "index": 1
        }
      }
    },
    {
      "name": "Bois",
      "normalTexture": {
        "index": 5
      },
      "occlusionTexture": {
        "index": 4
      },
      "pbrMetallicRoughness": {
        "baseColorTexture": {
          "index": 3
        },
        "metallicRoughnessTexture": {
          "index": 4
        }
      }
    }
  ],
  "meshes": [
    {
      "name": "Object_0",
      "primitives": [
        {
          "attributes": {
            "NORMAL": 1,
            "POSITION": 0,
            "TANGENT": 2,
            "TEXCOORD_0": 3,
            "TEXCOORD_1": 4,
            "TEXCOORD_2": 5,
            "TEXCOORD_3": 6,
            "TEXCOORD_4": 7
          },
          "indices": 8,
          "material": 0,
          "mode": 4
        }
      ]
    },
    {
      "name": "Object_1",
      "primitives": [
        {
          "attributes": {
            "NORMAL": 10,
            "POSITION": 9,
            "TANGENT": 11,
            "TEXCOORD_0": 12,
            "TEXCOORD_1": 13,
            "TEXCOORD_2": 14,
            "TEXCOORD_3": 15,
            "TEXCOORD_4": 16
          },
          "indices": 17,
          "material": 1,
          "mode": 4
        }
      ]
    }
  ],
  "nodes": [
    {
      "children": [
        1
      ],
      "matrix": [
        1.0,
        0.0,
        0.0,
        0.0,
        0.0,
        2.220446049250313e-16,
        -1.0,
        0.0,
        0.0,
        1.0,
        2.220446049250313e-16,
        0.0,
        0.0,
        0.0,
        0.0,
        1.0
      ],
      "name": "Sketchfab_model"
    },
    {
      "children": [
        2
      ],
      "name": "root"
    },
    {
      "children": [
        3
      ],
      "matrix": [
        1.0,
        0.0,
        0.0,
        0.0,
        0.0,
        2.220446049250313e-16,
        1.0,
        0.0,
        0.0,
        -1.0,
        2.220446049250313e-16,
        0.0,
        0.0,
        0.0,
        0.0,
        1.0
      ],
      "name": "GLTF_SceneRootNode"
    },
    {
      "children": [
        4,
        6
      ],
      "name": "SKLUM_0049_Chaise Canada_2"
    },
    {
      "children": [
        5
      ],
      "name": "Assise_0"
    },
    {
      "mesh": 0,
      "name": "Object_5"
    },
    {
      "children": [
        7
      ],
      "name": "Pieds_1"
    },
    {
      "mesh": 1,
      "name": "Object_7"
    }
  ],
  "samplers": [
    {
      "magFilter": 9729,
      "minFilter": 9987,
      "wrapS": 10497,
      "wrapT": 10497
    }
  ],
  "scene": 0,
  "scenes": [
    {
      "name": "Sketchfab_Scene",
      "nodes": [
        0
      ]
    }
  ],
  "textures": [
    {
      "sampler": 0,
      "source": 0
    },
    {
      "sampler": 0,
      "source": 1
    },
    {
      "sampler": 0,
      "source": 2
    },
    {
      "sampler": 0,
      "source": 3
    },
    {
      "sampler": 0,
      "source": 4
    },
    {
      "sampler": 0,
      "source": 5
    }
  ]
}
